<svg width="60" height="60" viewBox="0 0 60 60" fill="none" xmlns="http://www.w3.org/2000/svg">
<path d="M36.1523 10.1797L35.2153 9.00844C36.4039 8.05756 37.7037 7.29913 39.1109 6.73624C40.5892 6.14493 42.239 5.86724 44.0332 5.86724C45.9381 5.86724 47.732 6.21455 49.3973 6.92507C51.025 7.6196 52.4687 8.56936 53.7173 9.77414C54.9793 10.9918 55.9615 12.4297 56.6629 14.0735C57.3725 15.7367 57.7207 17.5204 57.7207 19.4083C57.7207 20.724 57.534 22.0111 57.1601 23.2647C56.9652 23.9181 56.725 24.554 56.4395 25.1718C55.7165 26.7364 54.1308 27.5 52.6278 27.5H45.1237C43.9352 27.5 42.7951 27.0299 41.952 26.1923L40.4065 24.6567C39.8208 24.0748 38.875 24.0756 38.2902 24.6585L33.1486 29.784C31.3919 31.5353 28.5492 31.5347 26.7932 29.7826L17.9038 20.913C17.3186 20.3291 16.3712 20.3288 15.7855 20.9123L10.3185 26.36C9.58585 27.0901 8.59367 27.5 7.55933 27.5H4.31084C4.15892 27.5 4.07641 27.5731 4.04664 27.6216C4.04002 27.6324 4.03712 27.64 4.03591 27.6441C4.03815 27.6504 4.04356 27.6623 4.05577 27.6804C4.52795 28.3799 5.07168 29.0382 5.68895 29.6556L36.1523 10.1797ZM36.1523 10.1797L35.2153 9.00844C34.0846 9.91296 33.008 10.9079 31.9851 11.9922L32.9581 12.9101L31.9851 11.9922C31.6621 12.3346 31.3326 12.6824 30.9966 13.0356C30.4195 13.6424 29.4789 13.635 28.9273 13.0542C28.6135 12.7238 28.3025 12.3925 27.9944 12.0602C26.9511 10.9351 25.8619 9.91706 24.7261 9.00844C23.543 8.06197 22.2428 7.28889 20.83 6.68949C19.3308 6.0535 17.6823 5.75005 15.9082 5.75005C14.0374 5.75005 12.2638 6.09918 10.6027 6.80788C8.96372 7.5072 7.51395 8.48393 6.26356 9.73431C5.01317 10.9847 4.03645 12.4345 3.33713 14.0735C2.62994 15.731 2.27174 17.5086 2.2501 19.391L2.25 19.3996V19.4083C2.25 19.6117 2.25468 19.8159 2.26399 20.0209C2.27374 20.2356 2.19721 20.4397 2.07983 20.5783C1.97023 20.7076 1.85645 20.7501 1.75147 20.7501H1.65316C1.62181 20.7501 1.59408 20.7445 1.5718 20.7364C1.56546 20.7341 1.55992 20.7317 1.55513 20.7294L1.50003 19.407C1.50378 17.4025 1.87733 15.5426 2.61134 13.8124C3.35852 12.0512 4.38429 10.5242 5.68957 9.21892C6.99485 7.91364 8.52187 6.88787 10.2831 6.14069C12.0245 5.40193 13.897 5.01871 15.9149 5.00005C17.4215 5.00056 18.7188 5.1736 19.8233 5.49644C20.9766 5.83358 22.0297 6.29137 22.988 6.86637C23.9621 7.45083 24.9122 8.17495 25.8372 9.04548C26.1443 9.33455 26.4554 9.63038 26.7704 9.93297L27.8095 8.85116L26.7704 9.93297C28.5593 11.6512 31.3861 11.6312 33.1609 9.91672C33.4703 9.6178 33.7748 9.3276 34.0742 9.04611C34.9743 8.20003 35.921 7.48682 36.9139 6.90173C37.9022 6.31936 38.9756 5.84813 40.1384 5.49036C41.2306 5.15429 42.5166 4.98189 44.0151 4.99994L44.0242 5.00005H44.0332C46.0279 5.00005 47.8884 5.37295 49.629 6.11139C51.3884 6.85782 52.9028 7.88152 54.1861 9.18238C55.4795 10.4935 56.5103 12.0193 57.2788 13.7707C58.0306 15.4843 58.4121 17.3383 58.4121 19.3497C58.4121 21.0647 58.1123 22.7228 57.5109 24.3325C57.1544 25.2866 56.7089 26.1933 56.1739 27.0538C55.7195 27.7846 54.8142 28.25 53.7244 28.25H43.5368C43.1487 28.25 42.7767 28.0949 42.5036 27.8191C40.7648 26.0631 37.9289 26.0583 36.1843 27.8085L31.0321 32.9767C30.4461 33.5646 29.4942 33.5648 28.9079 32.9772L19.9727 24.0221C18.2491 22.2947 15.4628 22.2558 13.6917 23.9344L9.16914 28.2207C7.96631 28.8457 7.6417 30.5189 8.6664 31.5436L24.6674 47.5446C27.5963 50.4736 32.3451 50.4736 35.274 47.5446L47.7088 35.1098C47.7791 35.0395 47.8744 35 47.9738 35C48.3077 35 48.475 35.4038 48.2389 35.6399L35.2703 48.6084C32.3426 51.5361 27.5962 51.5375 24.6668 48.6115L5.68957 29.6562L36.1523 10.1797ZM1.55729 20.7814L1.55729 20.7812L1.55729 20.7814ZM4.0345 27.6386C4.0346 27.6386 4.0349 27.6396 4.03509 27.6416C4.0345 27.6396 4.0344 27.6386 4.0345 27.6386Z" stroke="#E04747" stroke-width="3"/>
</svg>
