<svg width="180" height="57" viewBox="0 0 180 57" fill="none" xmlns="http://www.w3.org/2000/svg">
<path d="M45.907 39.4649L45.6056 41.5879L45.907 39.4677V39.4649ZM16.7442 32.8929V34.653H20.9302V32.8929H16.7442ZM14.2856 37.8876L8.70419 39.5649L9.88186 43.6766L15.4633 41.9993L14.2856 37.8876ZM4.18605 36.3275V30.8328H0V36.3275H4.18605ZM4.93395 28.3354C7.40093 25.2895 14.6874 18.2861 30 18.2861V14C13.2279 14 4.82512 21.7549 1.7107 25.6009L4.93395 28.3354ZM30 18.2861C44.6037 18.2861 51.9488 23.335 54.7535 25.9009L57.5442 22.7064C53.9833 19.449 45.653 14 30 14V18.2861ZM39.0698 32.8929V34.0016H43.2558V32.8929H39.0698ZM45.6056 41.5879L51.187 42.4251L51.7926 38.1819L46.2112 37.3447L45.6056 41.5879ZM60 34.8388V28.7669H55.8139V34.8388H60ZM41.1628 32.8929C43.2558 32.8929 43.2558 32.8901 43.2558 32.8872V32.8415C43.2548 32.7775 43.2511 32.7137 43.2447 32.65C43.1953 32.2004 43.0766 31.7615 42.893 31.3499C42.466 30.4357 41.8151 29.6501 41.0037 29.0698C39.0893 27.6325 35.774 26.561 30 26.561V30.847C35.386 30.847 37.6549 31.87 38.5312 32.5272C38.947 32.8415 39.0614 33.0758 39.0837 33.1272C39.0977 33.1558 39.0949 33.1586 39.0865 33.1215C39.0744 33.0604 39.0688 32.9981 39.0698 32.9358V32.8986C39.0698 32.8958 39.0698 32.8929 41.1628 32.8929ZM30 26.561C24.2233 26.561 20.9107 27.6325 18.9963 29.0698C18.0167 29.8041 17.4335 30.6127 17.107 31.3499C16.9234 31.7616 16.8048 32.2004 16.7553 32.65C16.7495 32.7137 16.7458 32.7776 16.7442 32.8415V32.8872C16.7442 32.8872 16.7442 32.8929 18.8372 32.8929C20.9302 32.8929 20.9302 32.8929 20.9302 32.8986V32.9158C20.9275 32.9846 20.9219 33.0532 20.9135 33.1215C20.9051 33.1586 20.9023 33.1558 20.9163 33.1244C21.0504 32.8823 21.24 32.6774 21.4688 32.5272C22.3451 31.87 24.6112 30.847 30 30.847V26.561ZM51.187 42.4251C55.747 43.1109 60 39.6106 60 34.8388H55.8139C55.8139 36.8332 53.986 38.5162 51.7953 38.1848L51.187 42.4251ZM54.7535 25.9009C55.4288 26.521 55.8139 27.5096 55.8139 28.7669H60C60 26.6724 59.3581 24.3608 57.5442 22.7064L54.7535 25.9009ZM4.18605 30.8328C4.18605 29.7841 4.44558 28.9412 4.93395 28.3354L1.7107 25.6009C0.435349 27.1782 0 29.0869 0 30.8328H4.18605ZM39.0698 34.0016C39.0698 37.8504 41.8995 41.0307 45.6056 41.5879L46.2112 37.3447C44.4586 37.0818 43.2558 35.6188 43.2558 34.0016H39.0698ZM8.70698 39.562C6.36837 40.2621 4.18605 38.5105 4.18605 36.3275H0C0 41.565 5.05116 45.1253 9.87907 43.6738L8.70419 39.5591L8.70698 39.562ZM16.7442 34.653C16.7442 36.096 15.787 37.4361 14.2856 37.8876L15.4633 41.9993C18.6698 41.0336 20.9302 38.0819 20.9302 34.653H16.7442Z" fill="#179F56"/>
<path d="M143.501 46.3428L143.111 46.2808L142.726 46.3718C142.261 46.482 141.73 46.7442 141.298 46.9736C140.8 47.2387 140.19 47.5952 139.489 48.0321C138.083 48.9079 136.249 50.1457 134.103 51.7126L134.101 51.7141C134.032 51.7647 133.975 51.779 133.929 51.782C133.874 51.7855 133.809 51.774 133.745 51.7422C133.681 51.7105 133.638 51.6679 133.613 51.63C133.593 51.5992 133.574 51.5561 133.574 51.48V44.004V42.9006L132.641 42.3122C131.624 41.671 130.653 40.9595 129.735 40.1829C124.781 35.9813 122 30.3361 122 24.36C122 12.2079 133.573 2 148.371 2C163.172 2 174.745 12.208 174.745 24.36C174.745 36.515 163.169 46.723 148.371 46.723C146.722 46.723 145.093 46.5959 143.501 46.3428ZM130.176 39.7461L130.179 39.7485C131.369 40.7525 132.673 41.663 134.07 42.4555L134.074 42.4578C134.175 42.5148 134.227 42.615 134.227 42.708V47.019V50.77L137.342 48.6797C138.981 47.5795 140.274 46.814 141.301 46.3287C142.354 45.8311 142.967 45.707 143.289 45.707C143.324 45.707 143.346 45.7093 143.355 45.7106C144.993 45.9864 146.674 46.127 148.371 46.127C162.305 46.127 174.092 36.6149 174.092 24.36C174.092 12.1079 162.305 2.596 148.371 2.596C134.444 2.596 122.65 12.1076 122.65 24.36C122.65 30.2568 125.429 35.7244 130.176 39.7461ZM136.278 26.959C135.307 26.959 134.558 26.1844 134.558 25.281C134.558 24.3756 135.306 23.603 136.278 23.603C137.25 23.603 137.998 24.3756 137.998 25.281C137.998 26.1864 137.25 26.959 136.278 26.959ZM148.371 26.959C147.4 26.959 146.651 26.1844 146.651 25.281C146.651 24.3756 147.399 23.603 148.371 23.603C149.343 23.603 150.091 24.3756 150.091 25.281C150.091 26.1864 149.343 26.959 148.371 26.959ZM160.464 26.959C159.493 26.959 158.744 26.1844 158.744 25.281C158.744 24.3756 159.492 23.603 160.464 23.603C161.436 23.603 162.184 24.3756 162.184 25.281C162.184 26.1864 161.436 26.959 160.464 26.959Z" fill="#006FC4" stroke="#006FC3" stroke-width="4"/>
</svg>
