<svg width="40" height="40" viewBox="0 0 40 40" fill="none" xmlns="http://www.w3.org/2000/svg">
<path d="M29.3001 23.3349C29.7935 23.3349 30.2667 23.1342 30.6156 22.777C30.9645 22.4198 31.1605 21.9353 31.1605 21.4302C31.1605 20.925 30.9645 20.4405 30.6156 20.0833C30.2667 19.7261 29.7935 19.5254 29.3001 19.5254C28.8067 19.5254 28.3334 19.7261 27.9845 20.0833C27.6356 20.4405 27.4396 20.925 27.4396 21.4302C27.4396 21.9353 27.6356 22.4198 27.9845 22.777C28.3334 23.1342 28.8067 23.3349 29.3001 23.3349ZM29.3001 30.954C29.7935 30.954 30.2667 30.7533 30.6156 30.3961C30.9645 30.0389 31.1605 29.5544 31.1605 29.0492C31.1605 28.544 30.9645 28.0595 30.6156 27.7023C30.2667 27.3451 29.7935 27.1444 29.3001 27.1444C28.8067 27.1444 28.3334 27.3451 27.9845 27.7023C27.6356 28.0595 27.4396 28.544 27.4396 29.0492C27.4396 29.5544 27.6356 30.0389 27.9845 30.3961C28.3334 30.7533 28.8067 30.954 29.3001 30.954ZM21.8582 21.4302C21.8582 21.9353 21.6622 22.4198 21.3133 22.777C20.9644 23.1342 20.4912 23.3349 19.9978 23.3349C19.5043 23.3349 19.0311 23.1342 18.6822 22.777C18.3333 22.4198 18.1373 21.9353 18.1373 21.4302C18.1373 20.925 18.3333 20.4405 18.6822 20.0833C19.0311 19.7261 19.5043 19.5254 19.9978 19.5254C20.4912 19.5254 20.9644 19.7261 21.3133 20.0833C21.6622 20.4405 21.8582 20.925 21.8582 21.4302ZM21.8582 29.0492C21.8582 29.5544 21.6622 30.0389 21.3133 30.3961C20.9644 30.7533 20.4912 30.954 19.9978 30.954C19.5043 30.954 19.0311 30.7533 18.6822 30.3961C18.3333 30.0389 18.1373 29.5544 18.1373 29.0492C18.1373 28.544 18.3333 28.0595 18.6822 27.7023C19.0311 27.3451 19.5043 27.1444 19.9978 27.1444C20.4912 27.1444 20.9644 27.3451 21.3133 27.7023C21.6622 28.0595 21.8582 28.544 21.8582 29.0492ZM10.6954 23.3349C11.1889 23.3349 11.6621 23.1342 12.011 22.777C12.3599 22.4198 12.5559 21.9353 12.5559 21.4302C12.5559 20.925 12.3599 20.4405 12.011 20.0833C11.6621 19.7261 11.1889 19.5254 10.6954 19.5254C10.202 19.5254 9.72878 19.7261 9.37988 20.0833C9.03097 20.4405 8.83496 20.925 8.83496 21.4302C8.83496 21.9353 9.03097 22.4198 9.37988 22.777C9.72878 23.1342 10.202 23.3349 10.6954 23.3349ZM10.6954 30.954C11.1889 30.954 11.6621 30.7533 12.011 30.3961C12.3599 30.0389 12.5559 29.5544 12.5559 29.0492C12.5559 28.544 12.3599 28.0595 12.011 27.7023C11.6621 27.3451 11.1889 27.1444 10.6954 27.1444C10.202 27.1444 9.72878 27.3451 9.37988 27.7023C9.03097 28.0595 8.83496 28.544 8.83496 29.0492C8.83496 29.5544 9.03097 30.0389 9.37988 30.3961C9.72878 30.7533 10.202 30.954 10.6954 30.954Z" fill="#83ABFB"/>
<path fill-rule="evenodd" clip-rule="evenodd" d="M10.6977 0C11.0677 0 11.4227 0.15051 11.6843 0.418419C11.946 0.686328 12.093 1.04969 12.093 1.42857V2.8819C13.3247 2.85714 14.6809 2.85714 16.173 2.85714H23.8251C25.3191 2.85714 26.6754 2.85714 27.907 2.8819V1.42857C27.907 1.04969 28.054 0.686328 28.3157 0.418419C28.5773 0.15051 28.9323 0 29.3023 0C29.6724 0 30.0273 0.15051 30.289 0.418419C30.5507 0.686328 30.6977 1.04969 30.6977 1.42857V3.00381C31.1814 3.0419 31.6391 3.08952 32.0726 3.14857C34.253 3.44952 36.0186 4.0819 37.4121 5.50667C38.8037 6.93333 39.4214 8.74095 39.7154 10.9733C40 13.1448 40 15.9162 40 19.4171V23.44C40 26.941 40 29.7143 39.7154 31.8838C39.4214 34.1162 38.8037 35.9238 37.4121 37.3505C36.0186 38.7752 34.253 39.4076 32.0726 39.7086C29.9516 40 27.2447 40 23.8251 40H16.1749C12.7553 40 10.0465 40 7.92744 39.7086C5.74698 39.4076 3.9814 38.7752 2.58791 37.3505C1.19628 35.9238 0.578605 34.1162 0.284651 31.8838C0 29.7124 0 26.941 0 23.44V19.4171C0 15.9162 0 13.1429 0.284651 10.9733C0.578605 8.74095 1.19628 6.93333 2.58791 5.50667C3.9814 4.0819 5.74698 3.44952 7.92744 3.14857C8.36093 3.08952 8.82047 3.0419 9.30233 3.00381V1.42857C9.30233 1.04969 9.44934 0.686328 9.71101 0.418419C9.97269 0.15051 10.3276 0 10.6977 0ZM8.29768 5.98095C6.42791 6.23809 5.34884 6.72191 4.56186 7.52762C3.77488 8.33333 3.30233 9.4381 3.05116 11.3543C3.00837 11.6781 2.97302 12.021 2.94326 12.381H37.0567C37.027 12.019 36.9916 11.6781 36.9488 11.3524C36.6977 9.4381 36.2251 8.33333 35.4381 7.52762C34.6512 6.72191 33.5721 6.23809 31.7005 5.98095C29.7898 5.71809 27.2688 5.71429 23.7209 5.71429H16.2791C12.7312 5.71429 10.2121 5.71809 8.29768 5.98095ZM2.7907 19.5238C2.7907 17.8971 2.7907 16.4819 2.81488 15.2381H37.1851C37.2093 16.4819 37.2093 17.8971 37.2093 19.5238V23.3333C37.2093 26.9657 37.2056 29.5467 36.9488 31.5048C36.6977 33.419 36.2251 34.5238 35.4381 35.3295C34.6512 36.1352 33.5721 36.619 31.7005 36.8762C29.7898 37.139 27.2688 37.1429 23.7209 37.1429H16.2791C12.7312 37.1429 10.2121 37.139 8.29768 36.8762C6.42791 36.619 5.34884 36.1352 4.56186 35.3295C3.77488 34.5238 3.30233 33.419 3.05116 31.5029C2.79442 29.5467 2.7907 26.9657 2.7907 23.3333V19.5238Z" fill="#83ABFB"/>
</svg>
