<svg width="300" height="177" viewBox="0 0 300 177" fill="none" xmlns="http://www.w3.org/2000/svg">
<path d="M165.938 0H134.062C126.296 0 120 6.296 120 14.0625V45.9375C120 53.704 126.296 60 134.062 60H165.938C173.704 60 180 53.704 180 45.9375V14.0625C180 6.296 173.704 0 165.938 0Z" fill="url(#paint0_radial_1695_548)"/>
<path d="M165.938 0H134.062C126.296 0 120 6.296 120 14.0625V45.9375C120 53.704 126.296 60 134.062 60H165.938C173.704 60 180 53.704 180 45.9375V14.0625C180 6.296 173.704 0 165.938 0Z" fill="url(#paint1_radial_1695_548)"/>
<path d="M150.002 6.5625C143.637 6.5625 142.838 6.59039 140.338 6.70406C137.843 6.81844 136.14 7.21336 134.65 7.79297C133.108 8.39156 131.8 9.19242 130.498 10.4955C129.194 11.7984 128.393 13.106 127.793 14.647C127.211 16.1377 126.816 17.8416 126.704 20.3355C126.592 22.8356 126.562 23.6348 126.562 30.0002C126.562 36.3656 126.591 37.162 126.704 39.6619C126.819 42.157 127.214 43.8602 127.793 45.3504C128.392 46.8921 129.193 48.1997 130.496 49.5023C131.798 50.8062 133.106 51.6089 134.647 52.2075C136.138 52.7871 137.841 53.182 140.336 53.2964C142.836 53.4101 143.634 53.438 149.999 53.438C156.365 53.438 157.162 53.4101 159.661 53.2964C162.157 53.182 163.862 52.7871 165.353 52.2075C166.894 51.6089 168.2 50.8062 169.502 49.5023C170.806 48.1997 171.606 46.8921 172.207 45.3511C172.783 43.8602 173.179 42.1566 173.296 39.6623C173.408 37.1625 173.438 36.3656 173.438 30.0002C173.438 23.6348 173.408 22.8361 173.296 20.336C173.179 17.8409 172.783 16.1379 172.207 14.6477C171.606 13.106 170.806 11.7984 169.502 10.4955C168.198 9.19195 166.894 8.39109 165.352 7.7932C163.857 7.21336 162.153 6.8182 159.658 6.70406C157.158 6.59039 156.362 6.5625 149.995 6.5625H150.002ZM147.9 10.7862C148.524 10.7852 149.22 10.7862 150.002 10.7862C156.26 10.7862 157.002 10.8087 159.473 10.9209C161.758 11.0255 162.998 11.4073 163.825 11.7281C164.918 12.1528 165.698 12.6607 166.518 13.4813C167.338 14.3016 167.846 15.0827 168.272 16.1766C168.593 17.0016 168.975 18.2419 169.079 20.527C169.191 22.9978 169.216 23.7398 169.216 29.9948C169.216 36.2498 169.191 36.9921 169.079 39.4627C168.975 41.7478 168.593 42.9881 168.272 43.8134C167.847 44.9072 167.338 45.686 166.518 46.5059C165.698 47.3262 164.919 47.8338 163.825 48.2588C162.999 48.581 161.758 48.9619 159.473 49.0664C157.002 49.1787 156.26 49.203 150.002 49.203C143.744 49.203 143.002 49.1787 140.531 49.0664C138.246 48.9609 137.006 48.5791 136.179 48.2583C135.086 47.8334 134.304 47.3257 133.484 46.5054C132.664 45.6851 132.156 44.9058 131.73 43.8115C131.409 42.9863 131.027 41.7459 130.923 39.4608C130.811 36.99 130.788 36.248 130.788 29.989C130.788 23.7302 130.811 22.992 130.923 20.5212C131.027 18.236 131.409 16.9957 131.73 16.1695C132.155 15.0757 132.664 14.2945 133.484 13.4742C134.304 12.6539 135.086 12.146 136.179 11.7204C137.006 11.3981 138.246 11.0173 140.531 10.9123C142.694 10.8145 143.531 10.7852 147.9 10.7803V10.7862ZM162.513 14.6777C160.96 14.6777 159.701 15.9363 159.701 17.4893C159.701 19.042 160.96 20.3018 162.513 20.3018C164.066 20.3018 165.326 19.042 165.326 17.4893C165.326 15.9366 164.066 14.6768 162.513 14.6768V14.6777ZM150.002 17.9639C143.355 17.9639 137.966 23.3531 137.966 30.0002C137.966 36.6473 143.355 42.034 150.002 42.034C156.649 42.034 162.037 36.6473 162.037 30.0002C162.037 23.3534 156.649 17.9639 150.002 17.9639H150.002ZM150.002 22.1876C154.317 22.1876 157.815 25.6852 157.815 30.0002C157.815 34.3148 154.317 37.8129 150.002 37.8129C145.687 37.8129 142.19 34.3148 142.19 30.0002C142.19 25.6852 145.687 22.1876 150.002 22.1876Z" fill="white"/>
<path d="M285.938 0H254.062C246.296 0 240 6.296 240 14.0625V45.9375C240 53.704 246.296 60 254.062 60H285.938C293.704 60 300 53.704 300 45.9375V14.0625C300 6.296 293.704 0 285.938 0Z" fill="white"/>
<path d="M285.938 0H254.062C246.296 0 240 6.296 240 14.0625V45.9375C240 53.704 246.296 60 254.062 60H285.938C293.704 60 300 53.704 300 45.9375V14.0625C300 6.296 293.704 0 285.938 0Z" fill="#1D9BF0"/>
<path d="M286.775 21.4244C286.8 21.7964 286.8 22.1683 286.8 22.5438C286.8 33.9806 278.094 47.1708 262.174 47.1708V47.1637C257.47 47.1705 252.865 45.8236 248.906 43.2837C249.59 43.3659 250.277 43.4069 250.966 43.4086C254.864 43.4116 258.65 42.1042 261.716 39.6963C259.91 39.6622 258.159 39.0645 256.71 37.9868C255.26 36.9092 254.183 35.4054 253.63 33.6858C254.927 33.9358 256.263 33.8848 257.537 33.5367C253.5 32.7208 250.594 29.1731 250.594 25.0528V24.9431C251.798 25.6136 253.145 25.9851 254.523 26.0264C250.72 23.4846 249.547 18.4251 251.844 14.4694C254.017 17.1433 256.728 19.3303 259.801 20.8882C262.874 22.4461 266.241 23.34 269.682 23.512C269.339 22.0351 269.39 20.4939 269.829 19.0427C270.269 17.5915 271.081 16.2811 272.186 15.2426C275.672 11.9655 281.155 12.1336 284.432 15.6178C286.37 15.2351 288.229 14.5245 289.928 13.5166C289.282 15.5207 287.93 17.2218 286.123 18.3035C287.839 18.1014 289.515 17.6421 291.094 16.9411C289.932 18.6806 288.47 20.1987 286.775 21.4244Z" fill="white"/>
<path d="M60 30C60 13.4316 46.5684 0 30 0C13.4316 0 0 13.4313 0 30C0 44.9738 10.9706 57.3851 25.3125 59.6355V38.6719H17.6953V30H25.3125V23.3906C25.3125 15.8719 29.7914 11.7188 36.6438 11.7188C39.9263 11.7188 43.3594 12.3047 43.3594 12.3047V19.6875H39.5766C35.8495 19.6875 34.6875 22.0001 34.6875 24.3727V30H43.0078L41.6777 38.6719H34.6875V59.6355C49.0294 57.3851 60 44.974 60 30Z" fill="#1877F2"/>
<path d="M41.6777 38.6719L43.0078 30H34.6875V24.3727C34.6875 21.9998 35.8498 19.6875 39.5766 19.6875H43.3594V12.3047C43.3594 12.3047 39.9263 11.7188 36.6438 11.7188C29.7914 11.7188 25.3125 15.8719 25.3125 23.3906V30H17.6953V38.6719H25.3125V59.6355C26.8632 59.8786 28.4304 60.0004 30 60C31.5696 60.0005 33.1368 59.8786 34.6875 59.6355V38.6719H41.6777Z" fill="white"/>
<path d="M105.907 159.465L105.606 161.588L105.907 159.468V159.465ZM76.7442 152.893V154.653H80.9302V152.893H76.7442ZM74.2856 157.888L68.7042 159.565L69.8819 163.677L75.4633 161.999L74.2856 157.888ZM64.186 156.327V150.833H60V156.327H64.186ZM64.934 148.335C67.4009 145.289 74.6874 138.286 90 138.286V134C73.2279 134 64.8251 141.755 61.7107 145.601L64.934 148.335ZM90 138.286C104.604 138.286 111.949 143.335 114.753 145.901L117.544 142.706C113.983 139.449 105.653 134 90 134V138.286ZM99.0698 152.893V154.002H103.256V152.893H99.0698ZM105.606 161.588L111.187 162.425L111.793 158.182L106.211 157.345L105.606 161.588ZM120 154.839V148.767H115.814V154.839H120ZM101.163 152.893C103.256 152.893 103.256 152.89 103.256 152.887V152.841C103.255 152.778 103.251 152.714 103.245 152.65C103.195 152.2 103.077 151.762 102.893 151.35C102.466 150.436 101.815 149.65 101.004 149.07C99.0893 147.632 95.774 146.561 90 146.561V150.847C95.386 150.847 97.6549 151.87 98.5312 152.527C98.947 152.841 99.0614 153.076 99.0837 153.127C99.0977 153.156 99.0949 153.159 99.0865 153.122C99.0744 153.06 99.0688 152.998 99.0698 152.936V152.899C99.0698 152.896 99.0698 152.893 101.163 152.893ZM90 146.561C84.2233 146.561 80.9107 147.632 78.9963 149.07C78.0167 149.804 77.4335 150.613 77.107 151.35C76.9234 151.762 76.8048 152.2 76.7553 152.65C76.7495 152.714 76.7458 152.778 76.7442 152.841V152.887C76.7442 152.887 76.7442 152.893 78.8372 152.893C80.9302 152.893 80.9302 152.893 80.9302 152.899V152.916C80.9275 152.985 80.9219 153.053 80.9135 153.122C80.9051 153.159 80.9023 153.156 80.9163 153.124C81.0504 152.882 81.24 152.677 81.4688 152.527C82.3451 151.87 84.6112 150.847 90 150.847V146.561ZM111.187 162.425C115.747 163.111 120 159.611 120 154.839H115.814C115.814 156.833 113.986 158.516 111.795 158.185L111.187 162.425ZM114.753 145.901C115.429 146.521 115.814 147.51 115.814 148.767H120C120 146.672 119.358 144.361 117.544 142.706L114.753 145.901ZM64.186 150.833C64.186 149.784 64.4456 148.941 64.934 148.335L61.7107 145.601C60.4353 147.178 60 149.087 60 150.833H64.186ZM99.0698 154.002C99.0698 157.85 101.9 161.031 105.606 161.588L106.211 157.345C104.459 157.082 103.256 155.619 103.256 154.002H99.0698ZM68.707 159.562C66.3684 160.262 64.186 158.51 64.186 156.327H60C60 161.565 65.0512 165.125 69.8791 163.674L68.7042 159.559L68.707 159.562ZM76.7442 154.653C76.7442 156.096 75.787 157.436 74.2856 157.888L75.4633 161.999C78.6698 161.034 80.9302 158.082 80.9302 154.653H76.7442Z" fill="#179F56"/>
<path d="M203.501 166.343L203.111 166.281L202.726 166.372C202.261 166.482 201.73 166.744 201.298 166.974C200.8 167.239 200.19 167.595 199.489 168.032C198.083 168.908 196.249 170.146 194.103 171.713L194.101 171.714C194.032 171.765 193.975 171.779 193.929 171.782C193.874 171.785 193.809 171.774 193.745 171.742C193.681 171.71 193.638 171.668 193.613 171.63C193.593 171.599 193.574 171.556 193.574 171.48V164.004V162.901L192.641 162.312C191.624 161.671 190.653 160.959 189.735 160.183C184.781 155.981 182 150.336 182 144.36C182 132.208 193.573 122 208.371 122C223.172 122 234.745 132.208 234.745 144.36C234.745 156.515 223.169 166.723 208.371 166.723C206.722 166.723 205.093 166.596 203.501 166.343ZM190.176 159.746L190.179 159.749C191.369 160.752 192.673 161.663 194.07 162.455L194.074 162.458C194.175 162.515 194.227 162.615 194.227 162.708V167.019V170.77L197.342 168.68C198.981 167.579 200.274 166.814 201.301 166.329C202.354 165.831 202.967 165.707 203.289 165.707C203.324 165.707 203.346 165.709 203.355 165.711C204.993 165.986 206.674 166.127 208.371 166.127C222.305 166.127 234.092 156.615 234.092 144.36C234.092 132.108 222.305 122.596 208.371 122.596C194.444 122.596 182.65 132.108 182.65 144.36C182.65 150.257 185.429 155.724 190.176 159.746ZM196.278 146.959C195.307 146.959 194.558 146.184 194.558 145.281C194.558 144.376 195.306 143.603 196.278 143.603C197.25 143.603 197.998 144.376 197.998 145.281C197.998 146.186 197.25 146.959 196.278 146.959ZM208.371 146.959C207.4 146.959 206.651 146.184 206.651 145.281C206.651 144.376 207.399 143.603 208.371 143.603C209.343 143.603 210.091 144.376 210.091 145.281C210.091 146.186 209.343 146.959 208.371 146.959ZM220.464 146.959C219.493 146.959 218.744 146.184 218.744 145.281C218.744 144.376 219.492 143.603 220.464 143.603C221.436 143.603 222.184 144.376 222.184 145.281C222.184 146.186 221.436 146.959 220.464 146.959Z" fill="#006FC4" stroke="#006FC3" stroke-width="4"/>
<defs>
<radialGradient id="paint0_radial_1695_548" cx="0" cy="0" r="1" gradientUnits="userSpaceOnUse" gradientTransform="translate(135.937 64.6212) rotate(-90) scale(59.4645 55.3066)">
<stop stop-color="#FFDD55"/>
<stop offset="0.1" stop-color="#FFDD55"/>
<stop offset="0.5" stop-color="#FF543E"/>
<stop offset="1" stop-color="#C837AB"/>
</radialGradient>
<radialGradient id="paint1_radial_1695_548" cx="0" cy="0" r="1" gradientUnits="userSpaceOnUse" gradientTransform="translate(109.95 4.32211) rotate(78.681) scale(26.5809 109.567)">
<stop stop-color="#3771C8"/>
<stop offset="0.128" stop-color="#3771C8"/>
<stop offset="1" stop-color="#6600FF" stop-opacity="0"/>
</radialGradient>
</defs>
</svg>
