<svg width="300" height="60" viewBox="0 0 300 60" fill="none" xmlns="http://www.w3.org/2000/svg">
<path d="M165.938 0H134.062C126.296 0 120 6.296 120 14.0625V45.9375C120 53.704 126.296 60 134.062 60H165.938C173.704 60 180 53.704 180 45.9375V14.0625C180 6.296 173.704 0 165.938 0Z" fill="url(#paint0_radial_1660_1022)"/>
<path d="M165.938 0H134.062C126.296 0 120 6.296 120 14.0625V45.9375C120 53.704 126.296 60 134.062 60H165.938C173.704 60 180 53.704 180 45.9375V14.0625C180 6.296 173.704 0 165.938 0Z" fill="url(#paint1_radial_1660_1022)"/>
<path d="M150.002 6.5625C143.637 6.5625 142.838 6.59039 140.338 6.70406C137.843 6.81844 136.14 7.21336 134.65 7.79297C133.108 8.39156 131.8 9.19242 130.498 10.4955C129.194 11.7984 128.393 13.106 127.793 14.647C127.211 16.1377 126.816 17.8416 126.704 20.3355C126.592 22.8356 126.562 23.6348 126.562 30.0002C126.562 36.3656 126.591 37.162 126.704 39.6619C126.819 42.157 127.214 43.8602 127.793 45.3504C128.392 46.8921 129.193 48.1997 130.496 49.5023C131.798 50.8062 133.106 51.6089 134.647 52.2075C136.138 52.7871 137.841 53.182 140.336 53.2964C142.836 53.4101 143.634 53.438 149.999 53.438C156.365 53.438 157.162 53.4101 159.661 53.2964C162.157 53.182 163.862 52.7871 165.353 52.2075C166.894 51.6089 168.2 50.8062 169.502 49.5023C170.806 48.1997 171.606 46.8921 172.207 45.3511C172.783 43.8602 173.179 42.1566 173.296 39.6623C173.408 37.1625 173.438 36.3656 173.438 30.0002C173.438 23.6348 173.408 22.8361 173.296 20.336C173.179 17.8409 172.783 16.1379 172.207 14.6477C171.606 13.106 170.806 11.7984 169.502 10.4955C168.198 9.19195 166.894 8.39109 165.352 7.7932C163.857 7.21336 162.153 6.8182 159.658 6.70406C157.158 6.59039 156.362 6.5625 149.995 6.5625H150.002ZM147.9 10.7862C148.524 10.7852 149.22 10.7862 150.002 10.7862C156.26 10.7862 157.002 10.8087 159.473 10.9209C161.758 11.0255 162.998 11.4073 163.825 11.7281C164.918 12.1528 165.698 12.6607 166.518 13.4813C167.338 14.3016 167.846 15.0827 168.272 16.1766C168.593 17.0016 168.975 18.2419 169.079 20.527C169.191 22.9978 169.216 23.7398 169.216 29.9948C169.216 36.2498 169.191 36.9921 169.079 39.4627C168.975 41.7478 168.593 42.9881 168.272 43.8134C167.847 44.9072 167.338 45.686 166.518 46.5059C165.698 47.3262 164.919 47.8338 163.825 48.2588C162.999 48.581 161.758 48.9619 159.473 49.0664C157.002 49.1787 156.26 49.203 150.002 49.203C143.744 49.203 143.002 49.1787 140.531 49.0664C138.246 48.9609 137.006 48.5791 136.179 48.2583C135.086 47.8334 134.304 47.3257 133.484 46.5054C132.664 45.6851 132.156 44.9058 131.73 43.8115C131.409 42.9863 131.027 41.7459 130.923 39.4608C130.811 36.99 130.788 36.248 130.788 29.989C130.788 23.7302 130.811 22.992 130.923 20.5212C131.027 18.236 131.409 16.9957 131.73 16.1695C132.155 15.0757 132.664 14.2945 133.484 13.4742C134.304 12.6539 135.086 12.146 136.179 11.7204C137.006 11.3981 138.246 11.0173 140.531 10.9123C142.694 10.8145 143.531 10.7852 147.9 10.7803V10.7862ZM162.513 14.6777C160.96 14.6777 159.701 15.9363 159.701 17.4893C159.701 19.042 160.96 20.3018 162.513 20.3018C164.066 20.3018 165.326 19.042 165.326 17.4893C165.326 15.9366 164.066 14.6768 162.513 14.6768V14.6777ZM150.002 17.9639C143.355 17.9639 137.966 23.3531 137.966 30.0002C137.966 36.6473 143.355 42.034 150.002 42.034C156.649 42.034 162.037 36.6473 162.037 30.0002C162.037 23.3534 156.649 17.9639 150.002 17.9639H150.002ZM150.002 22.1876C154.317 22.1876 157.815 25.6852 157.815 30.0002C157.815 34.3148 154.317 37.8129 150.002 37.8129C145.687 37.8129 142.19 34.3148 142.19 30.0002C142.19 25.6852 145.687 22.1876 150.002 22.1876Z" fill="white"/>
<path d="M285.938 0H254.062C246.296 0 240 6.296 240 14.0625V45.9375C240 53.704 246.296 60 254.062 60H285.938C293.704 60 300 53.704 300 45.9375V14.0625C300 6.296 293.704 0 285.938 0Z" fill="white"/>
<path d="M285.938 0H254.062C246.296 0 240 6.296 240 14.0625V45.9375C240 53.704 246.296 60 254.062 60H285.938C293.704 60 300 53.704 300 45.9375V14.0625C300 6.296 293.704 0 285.938 0Z" fill="#1D9BF0"/>
<path d="M286.775 21.4244C286.8 21.7964 286.8 22.1683 286.8 22.5438C286.8 33.9806 278.094 47.1708 262.174 47.1708V47.1637C257.47 47.1705 252.865 45.8236 248.906 43.2837C249.59 43.3659 250.277 43.4069 250.966 43.4086C254.864 43.4116 258.65 42.1042 261.716 39.6963C259.91 39.6622 258.159 39.0645 256.71 37.9868C255.26 36.9092 254.183 35.4054 253.63 33.6858C254.927 33.9358 256.263 33.8848 257.537 33.5367C253.5 32.7208 250.594 29.1731 250.594 25.0528V24.9431C251.798 25.6136 253.145 25.9851 254.523 26.0264C250.72 23.4846 249.547 18.4251 251.844 14.4694C254.017 17.1433 256.728 19.3303 259.801 20.8882C262.874 22.4461 266.241 23.34 269.682 23.512C269.339 22.0351 269.39 20.4939 269.829 19.0427C270.269 17.5915 271.081 16.2811 272.186 15.2426C275.672 11.9655 281.155 12.1336 284.432 15.6178C286.37 15.2351 288.229 14.5245 289.928 13.5166C289.282 15.5207 287.93 17.2218 286.123 18.3035C287.839 18.1014 289.515 17.6421 291.094 16.9411C289.932 18.6806 288.47 20.1987 286.775 21.4244Z" fill="white"/>
<path d="M13.6364 51.9994V29.3376L6.44694 22.9079L0 19.3398V48.0002C0 50.213 1.83398 51.9994 4.09101 51.9994H13.6364Z" fill="#4285F4"/>
<path d="M46.3633 52.0002H55.9087C58.1725 52.0002 59.9997 50.2071 59.9997 48.0009V19.3408L52.6975 23.4276L46.3633 29.3383V52.0002Z" fill="#34A853"/>
<path d="M13.6365 29.3363L12.6582 20.4816L13.6365 12.0068L30.0001 24.0043L46.3636 12.0068L47.4579 20.0241L46.3636 29.3363L30.0001 41.3337L13.6365 29.3363Z" fill="#EA4335"/>
<path d="M46.3633 12.0104V29.3398L59.9997 19.3421V14.0099C59.9997 9.0644 54.2247 6.24513 50.1817 9.21104L46.3633 12.0104Z" fill="#FBBC04"/>
<path d="M0 19.3422L6.27163 23.9406L13.6364 29.3399V12.0105L9.81796 9.21114C5.76796 6.24501 0 9.06451 0 14.0097V19.342V19.3422Z" fill="#C5221F"/>
<defs>
<radialGradient id="paint0_radial_1660_1022" cx="0" cy="0" r="1" gradientUnits="userSpaceOnUse" gradientTransform="translate(135.937 64.6212) rotate(-90) scale(59.4645 55.3066)">
<stop stop-color="#FFDD55"/>
<stop offset="0.1" stop-color="#FFDD55"/>
<stop offset="0.5" stop-color="#FF543E"/>
<stop offset="1" stop-color="#C837AB"/>
</radialGradient>
<radialGradient id="paint1_radial_1660_1022" cx="0" cy="0" r="1" gradientUnits="userSpaceOnUse" gradientTransform="translate(109.95 4.32211) rotate(78.681) scale(26.5809 109.567)">
<stop stop-color="#3771C8"/>
<stop offset="0.128" stop-color="#3771C8"/>
<stop offset="1" stop-color="#6600FF" stop-opacity="0"/>
</radialGradient>
</defs>
</svg>
