<svg width="60" height="60" viewBox="0 0 60 60" fill="none" xmlns="http://www.w3.org/2000/svg">
<path d="M30 7.5H12.5C10.8424 7.5 9.25269 8.15848 8.08058 9.33058C6.90848 10.5027 6.25 12.0924 6.25 13.75V46.25C6.25 47.9076 6.90848 49.4973 8.08058 50.6694C9.25269 51.8415 10.8424 52.5 12.5 52.5H37.5" stroke="#00A2B8" stroke-width="4" stroke-linecap="round" stroke-linejoin="round"/>
<path d="M23.75 7.5V25.0241C23.75 27.6339 22.063 29.9444 19.5772 30.7391L6.25 35M23.75 30L38.75 35" stroke="#00A2B8" stroke-width="4" stroke-linecap="round" stroke-linejoin="round"/>
<path d="M46.25 28.5L46 53" stroke="#00A2B8" stroke-width="4" stroke-linecap="round"/>
<path d="M38.75 21.6662C38.75 13.8888 43.75 10 46.25 10C48.75 10 53.75 13.8888 53.75 21.6662C53.75 29.445 38.75 29.445 38.75 21.6662Z" stroke="#00A2B8" stroke-width="4"/>
</svg>
