<svg width="28" height="24" viewBox="0 0 28 24" fill="none" xmlns="http://www.w3.org/2000/svg">
<path d="M2 7V4.5C2 3.83696 2.31607 3.20107 2.87868 2.73223C3.44129 2.26339 4.20435 2 5 2H8M20 2H23C23.7956 2 24.5587 2.26339 25.1213 2.73223C25.6839 3.20107 26 3.83696 26 4.5V7M26 17V19.5C26 20.163 25.6839 20.7989 25.1213 21.2678C24.5587 21.7366 23.7956 22 23 22H20M8 22H5C4.20435 22 3.44129 21.7366 2.87868 21.2678C2.31607 20.7989 2 20.163 2 19.5V17" stroke="white" stroke-width="3" stroke-linecap="round" stroke-linejoin="round"/>
</svg>
