<svg width="60" height="60" viewBox="0 0 60 60" fill="none" xmlns="http://www.w3.org/2000/svg">
<path d="M30 31.875C22.075 31.875 15.625 25.425 15.625 17.5C15.625 9.575 22.075 3.125 30 3.125C37.925 3.125 44.375 9.575 44.375 17.5C44.375 25.425 37.925 31.875 30 31.875ZM30 6.875C24.15 6.875 19.375 11.65 19.375 17.5C19.375 23.35 24.15 28.125 30 28.125C35.85 28.125 40.625 23.35 40.625 17.5C40.625 11.65 35.85 6.875 30 6.875Z" fill="#C66DC9"/>
<path d="M51.4754 54.375C50.4504 54.375 49.6004 53.525 49.6004 52.5C49.6004 43.875 40.8004 36.875 30.0004 36.875C19.2004 36.875 10.4004 43.875 10.4004 52.5C10.4004 53.525 9.55039 54.375 8.52539 54.375C7.50039 54.375 6.65039 53.525 6.65039 52.5C6.65039 41.825 17.1254 33.125 30.0004 33.125C42.8754 33.125 53.3504 41.825 53.3504 52.5C53.3504 53.525 52.5004 54.375 51.4754 54.375Z" fill="#C66DC9"/>
</svg>
